<svg width="95" height="20" viewBox="0 0 95 20" fill="none" xmlns="http://www.w3.org/2000/svg">
<path d="M10.3209 8.63588V18.4373L14.8347 19.8678V8.63588H17.7383V18.4373L22.2256 19.8678L25.1556 15.8943H22.252V6.22525L17.7647 4.66232L14.8347 8.10607V6.22525L10.3473 4.66232L7.41734 8.10607V6.22525L2.92998 4.66232L0 8.63588H2.90358V18.4373L7.41734 19.8678V8.63588H10.3209ZM58.7844 15.8943V6.0928L54.2706 4.66232V18.3049L58.758 19.8678L61.688 16.4241V18.3049L66.1753 19.8678L69.1053 15.8943H66.2017V6.0928L61.688 4.66232V15.8943H58.7844ZM92.0964 6.62261L87.6882 4.66232L82.4618 7.15242L87.6882 9.11271L80.5085 12.583V18.2519L85.0222 19.8678L87.6882 16.3976V18.3049L92.202 19.8678L95 15.8678H92.0964V6.62261ZM30.9892 19.8678L36.1628 17.8016L30.9892 15.8678V13.0863L37.773 9.80146L33.9191 4.66232L26.4754 8.23853V17.934L30.9892 19.8678ZM79.5318 15.5764L74.0414 13.9075L79.1887 7.33785L72.748 4.66232L69.3693 8.95377L74.8861 10.6492L69.6332 17.1923L76.1531 19.8678L79.5318 15.5764ZM85.0222 15.8943V11.9737L87.6882 10.7021V15.8943H85.0222ZM30.9892 7.23189L33.2592 10.3578L30.9892 11.4439V7.23189ZM38.9344 17.934L43.4482 19.8678L50.8655 16.9009V5.16564L38.9344 0V4.57528L46.3518 7.51572V16.9274L43.4482 15.8678V7.60276L38.9344 9.03324V17.934Z" fill="#A37846"/>
</svg>
